<svg width="355" height="70" viewBox="0 0 355 70" fill="none" xmlns="http://www.w3.org/2000/svg">
<path d="M352.57 15.4164C352.57 7.9174 346.283 0.0726908 346.283 2.42472C346.283 4.77674 347.446 36.0295 347.446 36.0295L346.283 56.4685C346.283 57.1379 346.542 57.7798 347.002 58.2531C347.462 58.7263 348.087 58.9922 348.739 58.9922C349.39 58.9922 350.015 58.7263 350.475 58.2531C350.936 57.7798 351.195 57.1379 351.195 56.4685L350.545 35.9134C350.545 35.9134 352.571 22.9167 352.571 15.4177L352.57 15.4164Z" stroke="#41BE41" stroke-width="4" stroke-miterlimit="10"/>
<path d="M285.4 3.3584C285.4 3.3584 285.537 8.60509 285.537 13.5867C285.537 17.3218 284.432 19.6688 282.86 20.6088L282.894 56.4672C282.894 57.1366 282.635 57.7785 282.174 58.2517C281.714 58.725 281.089 58.9908 280.438 58.9908C279.786 58.9908 279.161 58.725 278.701 58.2517C278.241 57.7785 277.982 57.1366 277.982 56.4672L278.978 20.6151C277.397 19.6826 276.287 17.3318 276.287 13.5867C276.287 8.60509 276.425 3.3584 276.425 3.3584M280.912 3.3584V15.453" stroke="#41BE41" stroke-width="4" stroke-miterlimit="10" stroke-linecap="round" stroke-linejoin="round"/>
<path d="M315.583 52.7917C329.119 52.7917 340.091 41.5167 340.091 27.6083C340.091 13.6998 329.119 2.4248 315.583 2.4248C302.048 2.4248 291.075 13.6998 291.075 27.6083C291.075 41.5167 302.048 52.7917 315.583 52.7917Z" stroke="#41BE41" stroke-width="4" stroke-miterlimit="10" stroke-linecap="round" stroke-linejoin="round"/>
<path d="M315.588 42.9908C323.827 42.9908 330.507 36.1274 330.507 27.6609C330.507 19.1945 323.827 12.3311 315.588 12.3311C307.348 12.3311 300.669 19.1945 300.669 27.6609C300.669 36.1274 307.348 42.9908 315.588 42.9908Z" stroke="#41BE41" stroke-width="4" stroke-miterlimit="10" stroke-linecap="round" stroke-linejoin="round"/>
<path d="M0 36.6338C0.52141 36.2241 1.0242 36.0192 1.50837 36.0192C1.95529 36.0192 2.38359 36.1496 2.79327 36.4103C3.24019 36.671 3.68712 37.0062 4.13404 37.4159C4.58096 37.7883 4.93478 38.0676 5.19548 38.2539C6.05208 38.9242 7.22526 39.4457 8.715 39.8181C10.2047 40.1905 11.7876 40.3767 13.4636 40.3767C15.363 40.3767 17.0576 40.0229 18.5473 39.3153C20.0743 38.5704 20.8378 37.5835 20.8378 36.3544C20.8378 35.2371 20.4281 34.3619 19.6088 33.7288C18.7894 33.0584 17.8024 32.5742 16.6479 32.2763C15.4933 31.9783 13.9664 31.699 12.0669 31.4383C9.49712 31.1403 7.44872 30.7679 5.92173 30.321C4.43199 29.874 3.24019 29.1478 2.34635 28.1422C1.4525 27.0994 1.00558 25.6469 1.00558 23.7847C1.00558 21.7736 1.95529 20.2838 3.85471 19.3155C5.75414 18.3099 7.93289 17.8071 10.391 17.8071C12.6256 17.8071 14.525 18.2913 16.0892 19.2596C17.6907 20.1907 18.5101 21.5315 18.5473 23.2819C18.6218 24.2875 18.4728 25.0882 18.1004 25.6841C17.728 26.2428 17.281 26.5221 16.7596 26.5221C16.4617 26.5221 16.201 26.4104 15.9775 26.1869C15.7913 25.9635 15.6982 25.6655 15.6982 25.2931C15.6982 24.6972 15.903 24.0454 16.3127 23.3378C16.1265 22.4439 15.512 21.7736 14.4691 21.3266C13.4636 20.8797 12.2531 20.6563 10.8379 20.6563C8.75225 20.6563 7.09491 21.0473 5.86587 21.8294C4.63683 22.5743 4.02231 23.4681 4.02231 24.511C4.02231 25.6283 4.46923 26.4849 5.36308 27.0808C6.25693 27.6767 7.33699 28.105 8.60327 28.3657C9.9068 28.5891 11.7504 28.8126 14.1339 29.0361C16.1079 29.2968 17.7093 29.6133 18.9384 29.9858C20.2047 30.3582 21.2661 31.0845 22.1227 32.1645C22.9793 33.2073 23.4076 34.7157 23.4076 36.6896C23.4076 38.738 22.4579 40.3581 20.5585 41.5499C18.659 42.7045 16.3872 43.2817 13.7429 43.2817C10.3537 43.2817 7.31837 42.7045 4.63683 41.5499C1.99253 40.3954 0.446923 38.7566 0 36.6338ZM37.1387 43.2259C36.7662 43.3004 36.5242 43.3376 36.4124 43.3376C35.2579 43.3376 34.4571 42.481 34.0102 40.7678C33.6005 39.0546 33.3957 36.6524 33.3957 33.5612C33.3957 32.2949 33.4329 30.321 33.5074 27.6394C33.5819 26.0007 33.6191 24.7717 33.6191 23.9523C29.0382 23.9523 26.7477 23.4309 26.7477 22.3881C26.7477 22.0529 26.7849 21.7922 26.8594 21.606C26.9712 21.4197 27.1946 21.3266 27.5298 21.3266L33.6191 20.9356C33.5819 19.1106 33.4888 17.1181 33.3398 14.958C33.1908 13.0213 33.0977 11.2336 33.0605 9.5949C33.0605 9.18523 33.2281 8.9059 33.5633 8.75692C33.8985 8.57071 34.2523 8.4776 34.6247 8.4776C35.0716 8.4776 35.4441 8.71968 35.742 9.20385C36.04 9.65077 36.189 10.1163 36.189 10.6005L36.58 20.8238L41.2168 21.0473C41.9245 20.9728 42.5204 21.1032 43.0045 21.4384C43.5259 21.7736 43.8053 22.3322 43.8425 23.1143C43.0604 23.4495 42.2038 23.6544 41.2727 23.7289C40.3416 23.8033 38.7774 23.8406 36.58 23.8406C36.58 27.3042 36.7476 33.0025 37.0828 40.9354C37.0828 41.7548 37.0828 42.332 37.0828 42.6672C37.12 42.9652 37.1387 43.1514 37.1387 43.2259ZM72.6098 42.9466C71.9394 42.9466 71.3993 42.6672 70.9897 42.1086C70.6172 41.5127 70.282 40.6188 69.9841 39.427C69.6861 38.198 69.2206 36.0751 68.5874 33.0584C67.9543 35.5537 66.7625 37.5462 65.0121 39.036C63.2616 40.4885 61.1201 41.2147 58.5875 41.2147C56.2784 41.2147 54.3231 40.414 52.7217 38.8125C51.1574 37.1738 49.9843 35.0323 49.2021 32.388C48.42 29.7064 48.029 26.8201 48.029 23.7289C48.029 22.3136 48.1593 21.1032 48.42 20.0976C48.718 19.0548 49.0718 18.2727 49.4815 17.7513C49.9284 17.2298 50.3567 16.9878 50.7664 17.025C51.2133 17.025 51.4368 17.323 51.4368 17.9188C51.4368 18.403 51.3064 19.1665 51.0457 20.2093C50.785 21.3639 50.6547 22.686 50.6547 24.1758C50.6547 26.4104 50.9712 28.5891 51.6044 30.712C52.2747 32.8349 53.2431 34.5854 54.5094 35.9634C55.8129 37.3041 57.3399 37.9745 59.0903 37.9745C60.5428 37.9745 61.865 37.5462 63.0568 36.6896C64.2486 35.833 65.1797 34.753 65.85 33.4494C66.5577 32.1459 66.9115 30.861 66.9115 29.5947V20.7121C67.3212 19.93 67.8798 19.5389 68.5874 19.5389C69.2206 19.5389 69.6489 20.079 69.8724 21.159C70.0958 22.2391 70.2075 23.7661 70.2075 25.74C70.2075 27.416 70.1889 28.7009 70.1517 29.5947C70.3751 30.8238 70.7103 32.0714 71.1573 33.3377C71.6414 34.604 72.2373 36.0379 72.945 37.6393C73.8016 39.6132 74.2299 40.8237 74.2299 41.2706C74.2299 42.3879 73.6898 42.9466 72.6098 42.9466ZM88.2709 43.17C86.5204 43.17 84.9934 42.5741 83.6899 41.3823C82.4236 40.1905 81.4553 38.6449 80.7849 36.7455C80.1518 34.8461 79.8352 32.8722 79.8352 30.8238C79.8352 27.2484 80.5801 24.2316 82.0698 21.7736C83.5968 19.3155 85.9059 18.0864 88.9971 18.0864C90.8595 18.0864 92.4796 18.4216 93.8576 19.092C95.2729 19.7252 97.1164 20.8052 99.3883 22.3322L100.841 23.3378C100.655 22.1088 100.375 20.6935 100.003 19.092C99.6304 17.4906 99.3883 16.3919 99.2766 15.796C98.6434 12.891 98.1779 10.7308 97.8799 9.31558C97.6192 7.86308 97.4889 6.57817 97.4889 5.46087C97.4889 3.48696 98.0475 2.5 99.1648 2.5C99.5745 3.39385 100.059 5.31189 100.617 8.25414C101.176 11.1591 101.884 15.1442 102.74 20.2093C103.634 25.5724 104.416 29.9485 105.087 33.3377C105.757 36.7269 106.316 38.8498 106.763 39.7064C106.763 40.563 106.129 40.9913 104.863 40.9913C103.895 40.9913 103.224 40.4326 102.852 39.3153C102.517 38.198 102.312 36.2427 102.237 33.4494H101.79C100.226 36.2799 98.1965 38.6077 95.7012 40.4326C93.2058 42.2575 90.7291 43.17 88.2709 43.17ZM88.9971 40.4326C90.5241 40.4326 92.163 39.7995 93.9135 38.5332C95.7012 37.2297 97.2095 35.6654 98.4386 33.8405C99.6676 31.9783 100.282 30.3023 100.282 28.8126V27.1366C96.446 23.1143 92.9079 21.1032 89.6675 21.1032C87.3957 21.1032 85.6452 21.9412 84.4162 23.6171C83.1871 25.2558 82.5726 27.416 82.5726 30.0975L82.6285 31.2707C82.8519 34.1012 83.4851 36.3358 84.5279 37.9745C85.5707 39.6132 87.0605 40.4326 88.9971 40.4326ZM125.395 69.6502C122.862 69.6502 120.59 69.1102 118.579 68.0301C116.605 66.9501 115.022 65.7024 113.83 64.2871C112.639 62.8719 111.968 61.7173 111.819 60.8235C111.67 60.0041 111.857 59.371 112.378 58.9241C112.937 58.4771 113.626 58.2909 114.445 58.3654C115.599 61.1214 116.977 63.2443 118.579 64.7341C120.18 66.2238 122.471 67.0059 125.45 67.0804C127.536 67.1177 129.193 65.7769 130.422 63.0581C131.689 60.3766 132.583 57.0805 133.104 53.1699C133.625 49.2966 133.886 45.4791 133.886 41.7175C133.886 39.7808 133.83 38.198 133.719 36.9689C130.888 40.4326 127.275 42.1644 122.881 42.1644C119.082 42.1644 116.158 40.3581 114.11 36.7455C112.099 33.1329 110.795 29.0547 110.199 24.511C110.125 24.064 110.087 23.4309 110.087 22.6115C110.087 20.2652 110.851 19.092 112.378 19.092C112.527 19.092 112.732 20.0231 112.992 21.8853C113.402 24.8275 113.905 27.4718 114.501 29.8182C115.097 32.1645 116.084 34.306 117.462 36.2427C118.877 38.1421 120.739 39.0918 123.048 39.0918C124.873 39.0918 126.735 38.4959 128.635 37.3041C130.571 36.0751 131.968 34.7157 132.825 33.226C132.825 30.3955 132.452 27.8629 131.707 25.6283C131 23.3564 130.627 22.146 130.59 21.997C130.516 21.1777 130.478 20.6563 130.478 20.4328C130.478 19.6879 130.59 19.1479 130.814 18.8127C131.074 18.4775 131.447 18.3099 131.931 18.3099C132.452 18.3099 133.048 19.3714 133.719 21.4942C134.389 23.6171 134.985 26.3918 135.506 29.8182C136.028 33.2446 136.381 36.82 136.568 40.5443C136.642 42.481 136.679 43.9149 136.679 44.846C136.679 51.9967 135.786 57.9185 133.998 62.6112C132.247 67.3039 129.38 69.6502 125.395 69.6502ZM161.688 63.114C160.944 63.114 160.05 61.1214 159.007 57.1364C158.001 53.1513 157.089 48.7193 156.27 43.8404C155.487 38.9987 155.096 35.9447 155.096 34.6785C155.096 30.9169 156.363 28.1795 158.895 26.4663C161.428 24.7158 164.687 23.8406 168.672 23.8406C170.794 23.8406 172.806 24.2875 174.705 25.1814C176.605 26.038 178.132 27.2856 179.286 28.9243C180.441 30.5258 181.018 32.388 181.018 34.5109C181.018 37.1552 180.087 39.0173 178.225 40.0974C176.4 41.1775 174.091 41.7175 171.297 41.7175C168.392 41.7175 165.916 41.2333 163.867 40.265C161.856 39.2594 160.85 37.9 160.85 36.1868L160.906 35.6282C161.167 35.3302 161.446 35.1813 161.744 35.1813C162.005 35.1813 162.284 35.293 162.582 35.5164C162.917 35.7027 163.271 35.9261 163.644 36.1868C164.798 37.0434 165.934 37.7324 167.052 38.2539C168.206 38.7753 169.64 39.036 171.353 39.036C173.7 39.036 175.357 38.6263 176.325 37.8069C177.331 36.9503 177.834 35.6096 177.834 33.7846C177.834 32.4439 177.387 31.2521 176.493 30.2092C175.599 29.1664 174.444 28.3657 173.029 27.807C171.614 27.2484 170.161 26.969 168.672 26.969C165.208 26.969 162.601 27.7139 160.85 29.2037C159.1 30.6562 158.318 33.0956 158.504 36.522C158.839 42.332 159.361 47.2109 160.068 51.1588C160.813 55.1066 162.098 58.4585 163.923 61.2145L163.979 61.3263C163.979 61.4008 163.886 61.4752 163.7 61.5497C163.551 61.6615 163.439 61.7546 163.364 61.8291C162.917 62.5367 162.359 62.965 161.688 63.114ZM186.865 42.8348C186.046 38.7753 185.413 33.9708 184.966 28.4215C184.556 22.835 184.351 17.4347 184.351 12.2206C184.351 9.61353 184.407 7.30442 184.519 5.29327C184.519 4.8091 184.891 4.56702 185.636 4.56702C186.232 4.56702 186.604 4.71599 186.753 5.01394C186.94 5.31189 187.033 5.77744 187.033 6.41058C187.033 12.444 187.144 17.6023 187.368 21.8853C187.591 26.1311 187.889 30.712 188.262 35.6282C188.485 38.7939 188.634 40.9354 188.709 42.0527C188.746 42.6486 188.429 42.9466 187.759 42.9466C187.535 42.9466 187.238 42.9093 186.865 42.8348ZM207.533 43.2259C203.66 43.2259 200.29 42.5555 197.422 41.2147C194.591 39.8367 193.176 37.4345 193.176 34.0081C193.176 32.779 193.548 31.5872 194.293 30.4327C195.038 29.2781 196.137 28.3471 197.589 27.6394C199.042 26.8946 200.811 26.5221 202.897 26.5221C204.498 26.5221 205.857 26.5966 206.975 26.7456C208.092 26.8946 209.377 27.3042 210.83 27.9746C212.282 28.645 213.79 29.7065 215.355 31.159C214.759 28.5891 213.865 26.3359 212.673 24.3992C211.481 22.4626 210.141 20.9728 208.651 19.93C207.198 18.8499 205.764 18.3099 204.349 18.3099C203.679 18.3099 203.046 18.4403 202.45 18.701C201.891 18.9244 201.202 19.2596 200.383 19.7065C199.452 20.3024 198.763 20.6004 198.316 20.6004C198.129 20.6004 197.962 20.5445 197.813 20.4328C197.701 20.2838 197.645 20.1162 197.645 19.93C197.645 18.4403 198.297 17.2857 199.601 16.4663C200.941 15.647 202.561 15.2746 204.461 15.349C207.068 15.498 209.452 16.6153 211.612 18.701C213.772 20.7494 215.466 23.3006 216.695 26.3545C217.962 29.4085 218.595 32.4066 218.595 35.3489C218.595 35.833 218.558 36.522 218.483 37.4159L216.695 37.3041C215.28 34.4364 213.455 32.4066 211.221 31.2148C209.023 29.9858 206.807 29.3713 204.573 29.3713C201.705 29.3713 199.656 29.7996 198.427 30.6562C197.198 31.5128 196.584 32.7604 196.584 34.3991C196.584 36.1124 197.44 37.4904 199.154 38.5332C200.867 39.576 203.064 40.0974 205.746 40.0974C207.236 40.0974 208.427 40.0229 209.321 39.874C210.215 39.6877 211.146 39.4456 212.114 39.1477C212.897 38.887 213.586 38.7008 214.181 38.5891C214.777 38.4773 215.541 38.4215 216.472 38.4215C217.515 38.4215 218.167 38.4959 218.427 38.6449C218.725 38.7939 218.874 39.1291 218.874 39.6505C218.874 40.0229 218.111 40.4885 216.584 41.0471C215.057 41.6058 213.343 42.1086 211.444 42.5555C209.545 43.0024 208.241 43.2259 207.533 43.2259ZM232.34 43.2259C231.968 43.3004 231.726 43.3376 231.614 43.3376C230.46 43.3376 229.659 42.481 229.212 40.7678C228.802 39.0546 228.598 36.6524 228.598 33.5612C228.598 32.2949 228.635 30.321 228.709 27.6394C228.784 26.0007 228.821 24.7717 228.821 23.9523C224.24 23.9523 221.95 23.4309 221.95 22.3881C221.95 22.0529 221.987 21.7922 222.061 21.606C222.173 21.4197 222.396 21.3266 222.732 21.3266L228.821 20.9356C228.784 19.1106 228.691 17.1181 228.542 14.958C228.393 13.0213 228.3 11.2336 228.262 9.5949C228.262 9.18523 228.43 8.9059 228.765 8.75692C229.1 8.57071 229.454 8.4776 229.827 8.4776C230.273 8.4776 230.646 8.71968 230.944 9.20385C231.242 9.65077 231.391 10.1163 231.391 10.6005L231.782 20.8238L236.419 21.0473C237.126 20.9728 237.722 21.1032 238.206 21.4384C238.728 21.7736 239.007 22.3322 239.044 23.1143C238.262 23.4495 237.406 23.6544 236.475 23.7289C235.543 23.8033 233.979 23.8406 231.782 23.8406C231.782 27.3042 231.949 33.0025 232.285 40.9354C232.285 41.7548 232.285 42.332 232.285 42.6672C232.322 42.9652 232.34 43.1514 232.34 43.2259ZM255.297 43.2259C252.914 43.2259 250.716 42.7603 248.705 41.8292C246.694 40.8981 245.093 39.576 243.901 37.8628C242.709 36.1496 242.113 34.1757 242.113 31.9411C242.113 29.4457 242.579 27.118 243.51 24.9579C244.441 22.7605 245.8 21.0101 247.588 19.7065C249.413 18.3658 251.536 17.6954 253.957 17.6954C256.489 17.6954 258.407 18.5147 259.711 20.1535C261.014 21.7549 261.629 23.7847 261.554 26.2428C261.554 28.4402 260.679 30.1161 258.929 31.2707C257.215 32.4252 255.018 33.0025 252.337 33.0025C251.927 33.0025 251.312 32.9653 250.493 32.8908C249.152 32.7418 248.203 32.537 247.644 32.2763C247.085 32.0156 246.806 31.4941 246.806 30.712C246.806 30.4513 246.88 30.2651 247.029 30.1534C247.178 30.0044 247.476 29.9299 247.923 29.9299C248.407 29.9299 249.264 30.0416 250.493 30.2651C251.685 30.4886 252.746 30.6003 253.677 30.6003C257.104 30.6003 258.817 29.1106 258.817 26.1311C258.817 24.3434 258.482 22.9281 257.811 21.8853C257.178 20.8425 256.042 20.3211 254.404 20.3211C252.616 20.3211 251.014 20.8052 249.599 21.7736C248.184 22.7047 247.085 23.9337 246.303 25.4607C245.558 26.9877 245.186 28.6078 245.186 30.321C245.186 33.2632 246.005 35.6841 247.644 37.5835C249.283 39.4457 251.815 40.3767 255.242 40.3767C255.651 40.3767 256.34 40.3395 257.309 40.265C257.718 40.2278 258.221 40.116 258.817 39.9298C259.413 39.7436 259.841 39.6132 260.102 39.5388C261.703 38.9801 262.876 38.7008 263.621 38.7008C264.18 38.7008 264.608 38.8498 264.906 39.1477C263.975 40.563 262.579 41.6058 260.716 42.2762C258.891 42.9093 257.085 43.2259 255.297 43.2259Z" fill="black"/>
</svg>
