<svg width="100" height="100" viewBox="0 0 100 100" fill="none" xmlns="http://www.w3.org/2000/svg">
<circle cx="50" cy="50" r="50" fill="white"/>
<path fill-rule="evenodd" clip-rule="evenodd" d="M49.9996 26.56C41.4577 26.56 34.5332 33.7055 34.5332 42.5199C34.5332 51.3344 41.4577 58.4799 49.9996 58.4799C58.5415 58.4799 65.4661 51.3344 65.4661 42.5199C65.4661 33.7055 58.5415 26.56 49.9996 26.56ZM30.1142 42.5199C30.1142 31.1871 39.0172 22 49.9996 22C60.9821 22 69.8851 31.1871 69.8851 42.5199C69.8851 53.8528 60.9821 63.0399 49.9996 63.0399C39.0172 63.0399 30.1142 53.8528 30.1142 42.5199Z" fill="#585858"/>
<path fill-rule="evenodd" clip-rule="evenodd" d="M50 63.0371C44.9575 63.0371 40.0039 64.4069 35.6371 67.0088C31.2703 69.6107 27.6443 73.353 25.1234 77.8594C24.5134 78.95 23.1621 79.3238 22.1053 78.6943C21.0485 78.0648 20.6862 76.6704 21.2963 75.5798C24.2049 70.38 28.3889 66.062 33.4275 63.0598C38.4661 60.0577 44.1818 58.4771 50 58.4771C55.8182 58.4771 61.5339 60.0577 66.5725 63.0598C71.6111 66.062 75.7951 70.38 78.7037 75.5798C79.3138 76.6704 78.9515 78.0648 77.8947 78.6943C76.8379 79.3238 75.4866 78.95 74.8766 77.8594C72.3557 73.353 68.7297 69.6107 64.3629 67.0088C59.9961 64.4069 55.0425 63.0371 50 63.0371Z" fill="#585858"/>
</svg>
